# xmcd
#
# Track frame offsets:
#	150
#	18606
#	34030
#	50681
#	65934
#	80500
#	98310
#	112072
#	125221
#	142346
#	158208
#	172709
#
# Disc length: 2496 seconds
#
# Revision: 1
# Processed by: cddbd v1.5.1PL0 Copyright (c) Steve Scherf et al.
# Submitted via: audiograbber 1.83.01
#
DISCID=aa09be0c
DTITLE=Melanie Laine - Time Flies
DYEAR=2004
DGENRE=Country
TTITLE0=Time Flies
TTITLE1=If Love Is A Weakness
TTITLE2=Where Was I
TTITLE3=You Won't Catch Me Fallin
TTITLE4=One Night At Home
TTITLE5=I Am Yours
TTITLE6=Good Enough
TTITLE7=Is Goodbye The Best You Can Do
TTITLE8=I Can't Hold The Wind
TTITLE9=Queen Of Hearts
TTITLE10=Jump Right In
TTITLE11=Til Love Makes Up Its Mind
EXTD=
EXTT0=
EXTT1=
EXTT2=
EXTT3=
EXTT4=
EXTT5=
EXTT6=
EXTT7=
EXTT8=
EXTT9=
EXTT10=
EXTT11=
PLAYORDER=
